<?xml version="1.0" encoding="UTF-8"?><svg id="Ebene_1" xmlns="http://www.w3.org/2000/svg" viewBox="0 0 1841.46 677.95"><defs><style>.cls-1{stroke-width:0px;}</style></defs><path class="cls-1" d="m181.94,563.24c3.94.01,7.13-.46,9.56-1.42s4.34-2.35,5.72-4.18c1.37-1.83,2.32-4.14,2.83-6.94s.77-6.07.78-9.83c.01-6.06-.59-11.51-1.82-16.38-1.23-4.86-2.59-9.13-4.1-12.8-1.5-3.67-2.89-6.76-4.17-9.29-1.28-2.52-1.91-4.47-1.9-5.84,0-1.75.56-3.12,1.66-4.13s2.71-1.51,4.82-1.51c3.67.01,6.3.38,7.9,1.12,1.61.74,2.82,2.25,3.64,4.55,2.91,8.35,5.07,17.74,6.46,28.2,1.4,10.46,2.08,22.3,2.05,35.49-.03,9.82-.48,17.83-1.36,24.07-.89,6.23-2.44,11.13-4.64,14.7-2.21,3.58-5.22,6.02-9.03,7.34s-8.69,1.98-14.66,1.97l-156.25-.37c-2.01,0-3.62.23-4.81.69-1.19.45-2.13,1.09-2.83,1.92-.68.82-1.14,1.8-1.38,2.95-.23,1.14-.35,2.4-.35,3.77,0,2.02.31,4.53.95,7.5s1.59,6.12,2.87,9.42c1.28,3.31,2.84,6.63,4.72,9.98,1.87,3.36,4,6.34,6.38,8.96,2.38,2.61,5.03,4.76,7.96,6.4,2.93,1.66,6.09,2.49,9.48,2.51,2.94.01,5.27-.37,7.02-1.15s3.06-1.67,3.92-2.67c.88-1.01,1.43-2.05,1.66-3.09.24-1.06.35-1.82.35-2.28,0-2.29-.38-4.17-1.16-5.64-.77-1.47-1.6-2.8-2.46-3.99-.87-1.2-1.7-2.33-2.47-3.39-.77-1.05-1.16-2.26-1.16-3.64,0-1.1.26-2.26.76-3.5.51-1.24,1.31-2.38,2.42-3.43,1.11-1.06,2.55-1.94,4.34-2.68,1.79-.73,3.97-1.09,6.53-1.07,3.67,0,6.83.72,9.49,2.15,2.66,1.43,4.88,3.27,6.66,5.52,1.78,2.25,3.11,4.82,3.97,7.71s1.29,5.75,1.28,8.59c0,4.4-.77,8.37-2.29,11.9s-3.61,6.52-6.28,8.99-5.79,4.35-9.36,5.62c-3.59,1.28-7.39,1.9-11.42,1.89-6.33-.01-12.12-1.16-17.39-3.48-5.27-2.3-10-5.46-14.21-9.45-4.21-4-7.89-8.68-11.04-14.06-3.15-5.37-5.77-11.17-7.87-17.41-2.09-6.24-3.66-12.76-4.7-19.55-1.04-6.78-1.55-13.58-1.53-20.36.02-7.52.74-13.35,2.17-17.53,1.43-4.17,3.16-7.24,5.18-9.2,2.03-1.96,4.14-3.12,6.33-3.49,2.2-.36,4.04-.54,5.51-.54l155.28.36Z"/><path class="cls-1" d="m39.22,478.88c-2.56-.01-5.02-.59-7.36-1.74-2.33-1.15-4.37-2.76-6.11-4.83-1.73-2.07-3.1-4.45-4.1-7.16s-1.5-5.66-1.5-8.87c0-3.12.52-6.03,1.53-8.73s2.4-5.06,4.14-7.07c1.75-2.02,3.79-3.59,6.13-4.73,2.35-1.15,4.8-1.71,7.36-1.7,2.66,0,5.14.58,7.42,1.73,2.29,1.15,4.28,2.74,5.98,4.77,1.69,2.02,3.04,4.38,4.04,7.08,1,2.71,1.5,5.62,1.5,8.74,0,3.21-.52,6.16-1.53,8.86-1.02,2.71-2.37,5.09-4.08,7.15-1.7,2.06-3.69,3.66-6,4.79-2.29,1.15-4.77,1.71-7.43,1.71Zm161.84-46.12c1.2,0,2.64.22,4.33.64,1.7.41,3.3,1.38,4.81,2.89,1.51,1.52,2.79,3.71,3.84,6.55,1.05,2.85,1.56,6.7,1.55,11.56-.01,4.86-.59,8.67-1.75,11.42-1.15,2.75-2.51,4.81-4.07,6.17-1.56,1.38-3.16,2.22-4.83,2.53-1.65.32-2.98.47-3.99.47l-106.18-.24c-2.66,0-4.97.61-6.95,1.84-1.98,1.24-2.97,3.32-2.97,6.25,0,1.56.27,2.89.82,4,.55,1.1,1.32,2.29,2.33,3.57l-3.45,2.89c-1.74-2.12-3.45-4.47-5.15-7.1-1.69-2.62-3.17-5.45-4.45-8.46-1.28-3.04-2.33-6.29-3.14-9.78-.82-3.49-1.23-7.16-1.21-11.01.01-5.96.82-10.59,2.44-13.88,1.61-3.3,3.59-5.73,5.93-7.27,2.35-1.56,4.85-2.49,7.5-2.8,2.66-.32,5-.47,7.01-.47l107.55.24Z"/><path class="cls-1" d="m82.7,353.26l101.64.24c4.86.01,8.23-.89,10.11-2.74,1.89-1.83,2.83-4.35,2.84-7.56,0-2.47-.68-4.68-2.05-6.61s-2.93-3.58-4.67-4.96c-1.92-1.66-4.16-3.08-6.73-4.28l1.94-4.26c2.93,1.38,6.14,3.02,9.61,4.91,3.48,1.88,6.71,4.38,9.68,7.52,2.97,3.12,5.47,7.04,7.47,11.77s3,10.66,2.99,17.82c-.01,4.04-.61,7.9-1.81,11.61-1.21,3.72-3.09,7.02-5.67,9.89-2.57,2.89-5.78,5.19-9.64,6.93s-8.49,2.6-13.9,2.58l-101.91-.24-.04,15.4h-9.91c0-2.58-.65-6.16-1.97-10.75-1.31-4.58-3.53-9.29-6.63-14.11s-7.27-9.29-12.48-13.44c-5.22-4.14-11.68-7.08-19.37-8.85l.03-11.01,40.57.1.05-22.42c.02-7.34-1.21-11.01-3.69-11.02-.91,0-1.53.46-1.85,1.38-.33.92-.74,1.94-1.25,3.08-.5,1.15-1.21,2.19-2.13,3.11-.92.91-2.43,1.37-4.54,1.36-2.57,0-4.59-.82-6.05-2.42-1.46-1.61-2.19-3.69-2.19-6.26,0-1.65.35-3.09,1.04-4.33.7-1.23,1.61-2.26,2.76-3.09,1.15-.82,2.45-1.43,3.92-1.84,1.46-.41,2.93-.61,4.4-.61,5.96.01,10.71,1.75,14.23,5.19,3.52,3.45,5.27,8.97,5.26,16.59l-.05,21.31Z"/><path class="cls-1" d="m82.92,258.37l101.64.24c4.86.01,8.23-.89,10.11-2.73,1.89-1.83,2.83-4.35,2.84-7.56,0-2.47-.67-4.69-2.05-6.61-1.37-1.93-2.92-3.58-4.67-4.96-1.92-1.66-4.16-3.08-6.72-4.28l1.93-4.26c2.93,1.39,6.14,3.02,9.61,4.91,3.49,1.89,6.71,4.39,9.68,7.52,2.97,3.13,5.46,7.05,7.47,11.78,2.01,4.73,3,10.66,2.99,17.81,0,4.04-.61,7.91-1.81,11.62-1.21,3.71-3.09,7.01-5.67,9.89-2.57,2.89-5.78,5.19-9.64,6.92-3.85,1.74-8.49,2.6-13.9,2.58l-101.91-.23-.04,15.4-9.91-.03c0-2.56-.65-6.14-1.97-10.73-1.31-4.59-3.53-9.29-6.63-14.11s-7.27-9.31-12.48-13.45c-5.22-4.13-11.67-7.08-19.37-8.84l.03-11,40.57.1.05-22.42c.02-7.33-1.21-11.01-3.69-11.01-.91,0-1.53.46-1.85,1.37-.33.92-.74,1.94-1.25,3.09-.5,1.15-1.22,2.18-2.14,3.1-.92.91-2.43,1.37-4.54,1.36-2.57,0-4.59-.82-6.05-2.42-1.46-1.61-2.19-3.69-2.19-6.26,0-1.65.35-3.09,1.04-4.33.69-1.23,1.6-2.26,2.75-3.09,1.15-.82,2.45-1.44,3.92-1.84,1.47-.42,2.94-.61,4.4-.61,5.96.01,10.7,1.75,14.22,5.19,3.53,3.45,5.28,8.97,5.26,16.59l-.05,21.32Z"/><path class="cls-1" d="m201.96,165.8c1.2,0,2.61.21,4.26.63,1.65.42,3.21,1.39,4.67,2.9,1.47,1.52,2.72,3.72,3.77,6.62,1.05,2.89,1.56,6.76,1.55,11.62-.01,4.86-.59,8.67-1.75,11.42-1.15,2.75-2.51,4.79-4.07,6.11-1.56,1.33-3.16,2.15-4.82,2.46-1.66.32-2.99.47-3.99.47l-177.42-.41c-2.66,0-4.97.61-6.94,1.85-1.98,1.23-2.97,3.32-2.98,6.25,0,1.56.25,2.91.75,4.06.5,1.14,1.26,2.36,2.26,3.65l-3.3,2.74c-1.74-2.11-3.45-4.45-5.15-7.02-1.69-2.58-3.17-5.4-4.45-8.48-1.28-3.07-2.32-6.35-3.14-9.84S-.01,193.67,0,189.82c.01-5.96.83-10.59,2.44-13.89,1.61-3.29,3.59-5.71,5.93-7.27,2.35-1.55,4.82-2.49,7.43-2.8s4.93-.47,6.95-.46l179.21.41Z"/><path class="cls-1" d="m151.1,95.54c2.93,0,6.12-.42,9.56-1.29,3.45-.86,6.91-2.11,10.4-3.75,3.48-1.64,6.81-3.68,9.98-6.1,3.16-2.42,6-5.2,8.48-8.36,2.48-3.16,4.46-6.67,5.94-10.51,1.48-3.85,2.22-8.07,2.22-12.66,0-3.21-.35-6.19-1.08-8.94-.72-2.75-1.73-5.32-3-7.71-1.28-2.38-2.76-4.68-4.45-6.88-1.7-2.21-3.5-4.41-5.42-6.62l3.3-3.43c2.84,2.12,5.96,4.83,9.33,8.13,3.39,3.31,6.57,7.31,9.54,11.98,2.97,4.69,5.43,10.15,7.39,16.39,1.96,6.24,2.92,13.35,2.9,21.32-.01,7.98-1.48,15.74-4.38,23.3-2.9,7.56-7.25,14.27-13.04,20.12-5.79,5.86-13,10.53-21.62,14.04-8.63,3.51-18.72,5.25-30.27,5.22-8.34-.02-16-1.09-22.96-3.21-6.96-2.13-13.24-5-18.82-8.64s-10.48-7.87-14.69-12.69c-4.21-4.83-7.7-9.89-10.49-15.23-2.78-5.32-4.88-10.76-6.28-16.3-1.41-5.55-2.11-10.9-2.1-16.03.01-6.78.76-12.7,2.24-17.74,1.48-5.04,3.46-9.23,5.95-12.57,2.48-3.34,5.35-5.83,8.6-7.47,3.27-1.65,6.68-2.47,10.25-2.45,4.31,0,8.19,1.26,11.62,3.74,3.43,2.49,6.43,5.79,8.98,9.93l31.93,54.4Zm-27.86-27.7c-.74-1.2-1.44-2.19-2.13-2.97-.69-.77-1.51-1.4-2.47-1.86s-2.15-.81-3.57-1.04c-1.42-.23-3.18-.35-5.29-.35-2.29,0-4.84.24-7.63.74-2.81.5-5.44,1.34-7.92,2.52-2.48,1.19-4.54,2.7-6.2,4.53s-2.48,4.03-2.49,6.6c0,3.3.97,6.12,2.93,8.46,1.97,2.35,4.51,4.27,7.63,5.79,3.11,1.52,6.66,2.72,10.64,3.6,3.99.88,8,1.56,12.04,2.02,4.03.47,7.9.75,11.61.86s6.86.15,9.42.16l-16.57-29.05Z"/><path class="cls-1" d="m850.56,427.93c0,7.06-1.87,12.2-5.59,15.39-3.71,3.21-9.38,4.81-16.98,4.79-7.7,0-13.38-1.61-17.05-4.82-3.66-3.22-5.48-8.35-5.48-15.42l.17-164.48c0-5.04-3.48-7.57-10.44-7.58-5.04,0-10.15.74-15.34,2.25-5.18,1.51-9.86,3.57-14.03,6.17-4.17,2.61-7.6,5.73-10.26,9.34-2.67,3.62-4,7.54-4,11.76,0,2.94.38,5.27,1.16,7.02.77,1.74,1.67,3.04,2.68,3.91s2.04,1.43,3.09,1.66,1.81.35,2.27.35c2.29,0,4.17-.38,5.64-1.16,1.47-.78,2.8-1.6,3.99-2.47,1.2-.87,2.31-1.7,3.38-2.48,1.05-.78,2.27-1.16,3.64-1.16,1.1,0,2.27.26,3.5.77,1.24.5,2.38,1.3,3.43,2.4s1.95,2.54,2.68,4.33c.73,1.79,1.09,3.98,1.09,6.53,0,3.67-.72,6.84-2.13,9.49-1.43,2.66-3.27,4.88-5.51,6.67-2.26,1.78-4.82,3.11-7.71,3.98s-5.75,1.3-8.6,1.3c-4.4-.01-8.37-.77-11.9-2.29-3.53-1.52-6.53-3.61-9.01-6.26-2.47-2.66-4.35-5.79-5.62-9.36-1.28-3.58-1.92-7.39-1.91-11.42,0-7.62,1.43-14.33,4.28-20.15s6.86-10.83,12.06-15.05c5.18-4.21,11.4-7.71,18.64-10.5,7.25-2.79,15.28-5,24.08-6.64,8.8-1.64,18.22-2.8,28.27-3.48,10.04-.68,20.47-1.01,31.29-1,26.22.03,46.07,5.07,59.53,15.12,13.47,10.05,20.2,24.48,20.18,43.27-.01,9.17-1.23,17.28-3.68,24.34-2.44,7.06-5.7,13.13-9.79,18.22-4.08,5.08-8.79,9.19-14.11,12.36-5.32,3.16-10.82,5.42-16.51,6.79s-11.39,1.92-17.12,1.62c-5.74-.28-11.07-1.33-16.03-3.17l1.94-5.92c6.88,2.12,12.54,2.2,16.99.23,4.44-1.97,7.93-5.47,10.46-10.51,2.54-5.04,4.28-11.42,5.25-19.11.97-7.71,1.46-16.18,1.48-25.45,0-6.97-.72-13.32-2.18-19.05-1.46-5.73-3.45-10.61-5.97-14.65-2.51-4.04-5.45-7.18-8.8-9.43-3.34-2.24-6.89-3.37-10.65-3.37-2.94,0-5.34.43-7.22,1.3s-3.35,1.97-4.4,3.3c-1.07,1.33-1.8,2.74-2.22,4.26-.41,1.51-.67,2.96-.76,4.33l-.17,163.12Z"/><path class="cls-1" d="m1074.08,422.26c0,.83.04,1.73.14,2.68.09.96.32,1.88.66,2.75.37.87.92,1.59,1.66,2.13.73.55,1.78.83,3.16.83,1.74,0,3.3-.61,4.68-1.85,1.37-1.24,2.67-2.49,3.86-3.78l3.29,2.9c-1.37,1.92-3.09,4.05-5.15,6.39-2.07,2.33-4.56,4.55-7.52,6.65-2.93,2.11-6.28,3.87-10.04,5.29s-8.03,2.12-12.8,2.12c-4.03-.01-7.54-.54-10.52-1.6s-5.5-2.48-7.56-4.27c-2.07-1.79-3.59-3.9-4.6-6.33s-1.51-5.02-1.51-7.77v-6.19c-4.58,4.95-9.4,9.29-14.45,13.04-2.2,1.65-4.54,3.25-7.02,4.81s-5.05,2.95-7.71,4.19c-2.66,1.23-5.41,2.21-8.25,2.94-2.85.74-5.69,1.1-8.53,1.1-5.52-.01-10.21-1-14.11-2.98-3.9-1.97-7.04-4.56-9.41-7.77-2.39-3.21-4.13-6.84-5.22-10.88-1.1-4.03-1.65-8.07-1.64-12.09l.09-85.14c0-.83-.05-1.73-.14-2.68s-.32-1.88-.69-2.75c-.36-.87-.91-1.59-1.65-2.13-.73-.55-1.79-.83-3.16-.83-1.65,0-3.18.61-4.62,1.85-1.42,1.24-2.67,2.49-3.77,3.77l-3.44-2.89c1.37-1.92,3.09-4.05,5.16-6.38,2.06-2.34,4.56-4.56,7.49-6.67,2.94-2.11,6.32-3.86,10.12-5.28s8.05-2.12,12.72-2.12c4.04,0,7.57.54,10.6,1.6,3.02,1.06,5.55,2.48,7.54,4.27,2.02,1.79,3.53,3.9,4.54,6.33,1.01,2.44,1.51,5.02,1.51,7.77l-.09,91.88c-.01,1.29.19,2.6.6,3.92.42,1.33,1.01,2.54,1.79,3.64s1.76,1.99,2.95,2.68c1.2.69,2.62,1.04,4.27,1.04,2.66,0,5.32-.69,7.98-2.06s5.09-2.99,7.29-4.87c2.2-1.88,4.1-3.73,5.73-5.56,1.6-1.84,2.76-3.21,3.5-4.13l.09-80.32c0-.82-.05-1.71-.14-2.67-.09-.97-.32-1.89-.69-2.76-.36-.87-.91-1.59-1.65-2.13-.73-.55-1.79-.82-3.16-.82-1.65-.01-3.18.61-4.62,1.84-1.42,1.24-2.67,2.49-3.77,3.78l-3.44-2.89c1.37-1.93,3.09-4.07,5.16-6.39,2.06-2.34,4.56-4.56,7.49-6.66,2.94-2.11,6.32-3.87,10.12-5.29s8.05-2.12,12.72-2.11c4.04,0,7.57.54,10.6,1.59,3.02,1.06,5.55,2.48,7.54,4.28,2.02,1.78,3.54,3.89,4.55,6.32,1,2.44,1.5,5.04,1.5,7.79l-.1,98.88Z"/><path class="cls-1" d="m1227.7,434.25c0,1.19-.19,2.61-.55,4.27-.38,1.65-1.28,3.21-2.7,4.67-1.42,1.47-3.55,2.72-6.39,3.78-2.85,1.05-6.7,1.57-11.56,1.56-4.86,0-8.69-.58-11.48-1.73-2.8-1.15-4.91-2.51-6.33-4.07-1.43-1.56-2.33-3.17-2.67-4.82-.37-1.65-.55-2.98-.55-3.99l.1-97.23c0-1.29-.19-2.6-.55-3.92s-.91-2.54-1.64-3.64c-.74-1.1-1.65-1.99-2.76-2.68-1.1-.69-2.38-1.04-3.85-1.04-2.47-.01-4.91.7-7.29,2.12-2.39,1.42-4.6,3.04-6.69,4.87-2.06,1.84-3.85,3.67-5.36,5.5-1.52,1.84-2.6,3.21-3.23,4.13l-.1,92.15c0,1.19-.19,2.61-.55,4.27-.38,1.65-1.28,3.21-2.7,4.67-1.42,1.47-3.53,2.72-6.33,3.77-2.8,1.06-6.62,1.57-11.48,1.57s-8.69-.58-11.49-1.73c-2.79-1.15-4.92-2.51-6.39-4.07s-2.38-3.17-2.74-4.82c-.37-1.65-.55-2.98-.55-3.99l.12-106.18c0-2.66-.61-4.97-1.85-6.94-1.23-1.98-3.31-2.97-6.25-2.97-1.56,0-2.89.27-3.99.82s-2.3,1.33-3.59,2.34l-2.86-3.44c2.1-1.74,4.46-3.45,7.08-5.15,2.61-1.7,5.43-3.18,8.46-4.46s6.28-2.34,9.77-3.16,7.16-1.23,11.01-1.23c5.96.01,10.59,1,13.88,2.98,3.3,1.97,5.73,4.33,7.29,7.08,1.56,2.76,2.49,5.62,2.8,8.6.32,2.98.49,5.48.49,7.49,4.31-4.85,8.94-9.19,13.9-13.05,2.02-1.64,4.24-3.25,6.67-4.81,2.43-1.55,4.93-2.95,7.52-4.18,2.56-1.24,5.22-2.21,7.98-2.95,2.75-.72,5.5-1.09,8.25-1.09,5.32,0,9.86.97,13.61,2.9,3.75,1.93,6.78,4.26,9.06,6.95,2.29,2.71,3.96,5.56,5.01,8.54s1.59,5.56,1.59,7.76c4.4-4.85,9.03-9.19,13.9-13.04,2.02-1.65,4.22-3.26,6.61-4.81,2.38-1.56,4.88-2.95,7.5-4.19,2.61-1.24,5.27-2.21,7.98-2.95,2.71-.72,5.43-1.09,8.18-1.09,5.32.01,9.86,1,13.61,2.98,3.75,1.97,6.78,4.56,9.06,7.77,2.3,3.22,3.96,6.84,5.01,10.87,1.05,4.05,1.57,8.08,1.57,12.12l-.09,85.13c0,.83.04,1.73.14,2.68.09.96.32,1.88.66,2.75.37.87.95,1.59,1.73,2.13s1.8.83,3.09.83c1.74,0,3.3-.61,4.68-1.85,1.37-1.24,2.67-2.49,3.86-3.78l3.29,2.9c-1.28,1.92-2.98,4.05-5.09,6.39-2.11,2.33-4.6,4.55-7.5,6.65-2.89,2.11-6.24,3.87-10.05,5.29-3.8,1.42-8.09,2.12-12.86,2.12-4.03-.01-7.54-.54-10.52-1.6s-5.5-2.48-7.56-4.27c-2.07-1.79-3.59-3.9-4.6-6.33s-1.51-5.02-1.51-7.77l.1-91.88c0-1.28-.19-2.58-.55-3.92-.36-1.33-.88-2.54-1.57-3.64s-1.59-1.99-2.68-2.68-2.38-1.04-3.85-1.04c-2.48,0-4.93.7-7.35,2.12-2.44,1.42-4.68,3.04-6.76,4.88-2.06,1.83-3.82,3.66-5.29,5.48-1.47,1.84-2.52,3.21-3.16,4.13l-.1,92.15Z"/><path class="cls-1" d="m1339.07,327.91c0-2.66-.61-4.97-1.85-6.94-1.23-1.98-3.31-2.97-6.25-2.97-1.56,0-2.89.27-3.99.82s-2.3,1.33-3.59,2.34l-2.86-3.44c2.1-1.74,4.46-3.45,7.08-5.15,2.61-1.7,5.43-3.18,8.46-4.46,3.03-1.28,6.28-2.34,9.77-3.16s7.16-1.23,11.01-1.23c4.13.01,7.66.65,10.59,1.94,2.94,1.28,5.37,2.83,7.35,4.62,1.97,1.79,3.45,3.67,4.46,5.64,1.01,1.98,1.61,3.66,1.78,5.02,1.85-2.57,4.03-4.9,6.55-7.01,2.53-2.11,5.28-3.91,8.26-5.43,2.99-1.5,6.15-2.67,9.5-3.49s6.81-1.23,10.38-1.23c7.34.01,13.99,1.53,19.93,4.56,5.97,3.03,11.08,7.53,15.33,13.5,4.27,5.96,7.53,13.35,9.82,22.14,2.29,8.81,3.41,19,3.4,30.54-.01,13.4-1.42,24.79-4.23,34.17-2.81,9.41-6.48,17.08-11.03,23.02-4.54,5.97-9.73,10.29-15.55,12.99-5.83,2.7-11.76,4.04-17.82,4.04-5.04-.01-9.46-.52-13.27-1.52-3.8-1.02-7.08-2.26-9.83-3.73s-5.04-2.97-6.86-4.47c-1.83-1.52-3.3-2.77-4.4-3.78l-.08,67.12c0,1.19-.19,2.61-.55,4.26-.37,1.65-1.27,3.23-2.7,4.74-1.42,1.51-3.53,2.81-6.33,3.91s-6.62,1.65-11.48,1.64c-4.86,0-8.69-.58-11.49-1.73-2.79-1.15-4.92-2.53-6.38-4.13-1.47-1.61-2.38-3.22-2.75-4.82-.37-1.61-.55-2.91-.55-3.92l.19-174.4Zm42.14,87.66c-.01.74.31,2.02.95,3.85.64,1.84,1.65,3.72,3.03,5.65,1.37,1.93,3.12,3.64,5.28,5.16,2.15,1.51,4.79,2.26,7.91,2.28,4.03,0,7.47-1.53,10.32-4.6,2.85-3.07,5.19-7.24,7.03-12.5s3.17-11.42,4-18.43c.84-7.01,1.25-14.5,1.27-22.47.01-9.82-.51-18.11-1.56-24.9-1.04-6.79-2.57-12.26-4.59-16.44-2.01-4.18-4.41-7.2-7.21-9.09-2.8-1.88-5.93-2.83-9.42-2.83-2.02,0-4.04.58-6.05,1.71-2.02,1.15-3.84,2.57-5.43,4.26-1.61,1.7-2.91,3.59-3.94,5.7-1.01,2.11-1.51,4.13-1.51,6.05l-.08,76.61Z"/><path class="cls-1" d="m1532.85,341.32c3.21-4.3,6.65-8.67,10.33-13.12,3.67-4.45,7.62-8.45,11.84-12.03,4.22-3.57,8.81-6.49,13.77-8.78s10.37-3.43,16.24-3.43c5.23.01,9.58,1.05,13.07,3.11,3.46,2.07,6.29,4.55,8.44,7.44,2.16,2.89,3.66,5.89,4.54,9.01.87,3.12,1.3,5.78,1.3,7.99-.01,4.03-.55,8.22-1.6,12.57-1.07,4.36-2.85,8.67-5.39,12.94-2.52,4.26-5.89,8.39-10.11,12.36-4.22,3.99-9.54,7.62-15.97,10.92,8.6,18.26,16.98,33.97,25.12,47.13,8.14,13.17,16.01,24,23.56,32.48,7.54,8.49,14.82,14.75,21.77,18.79,6.97,4.04,13.61,6.07,19.94,6.07,1.1.01,2.2-.13,3.3-.41,1.1-.27,2.11-.59,3.03-.96,1.01-.36,2.06-.82,3.16-1.37l2.62,4.82c-2.49,1.37-5.01,2.67-7.58,3.91-2.57,1.23-5.5,2.3-8.81,3.22-3.3.91-7.11,1.64-11.42,2.19s-9.43.82-15.4.81c-5.41,0-10.75-.65-16.02-1.94-5.28-1.28-10.57-3.58-15.89-6.89-5.31-3.31-10.69-7.71-16.13-13.22-5.46-5.51-11.03-12.49-16.76-20.93s-11.6-18.49-17.64-30.14c-6.03-11.65-12.31-25.27-18.81-40.86,8.82-6.51,15.74-12.53,20.8-18.06,5.04-5.55,8.86-10.56,11.43-15.05,2.57-4.5,4.18-8.49,4.82-11.97.64-3.49.98-6.46.98-8.94,0-.37-.05-1-.14-1.87s-.4-1.71-.89-2.54c-.51-.82-1.24-1.56-2.2-2.2s-2.31-.96-4.07-.97c-3.39,0-6.83,1.44-10.3,4.33-3.49,2.88-6.81,6.44-9.98,10.71-3.17,4.26-6.05,8.83-8.62,13.74-2.57,4.9-4.69,9.37-6.34,13.4l-.08,70.96c0,1.2-.2,2.62-.61,4.27-.42,1.65-1.39,3.21-2.9,4.68-1.51,1.47-3.72,2.72-6.61,3.77-2.88,1.05-6.76,1.57-11.62,1.57-4.86-.01-8.65-.59-11.42-1.74-2.75-1.15-4.78-2.49-6.11-4.05s-2.16-3.17-2.47-4.83c-.32-1.65-.49-2.98-.49-3.99l.19-177.42c0-2.66-.61-4.97-1.85-6.94-1.23-1.98-3.31-2.97-6.24-2.97-1.56,0-2.91.25-4.07.75-1.15.5-2.38,1.27-3.66,2.27l-2.74-3.3c2.11-1.73,4.45-3.45,7.02-5.15,2.56-1.69,5.38-3.18,8.45-4.46,3.08-1.28,6.37-2.33,9.86-3.16,3.48-.82,7.15-1.23,10.99-1.23,5.96,0,10.6.82,13.9,2.43,3.29,1.6,5.71,3.58,7.27,5.92s2.49,4.81,2.83,7.43c.31,2.61.46,4.93.46,6.94l-.09,85.96Z"/><path class="cls-1" d="m1683.63,434.47c0,1.19-.2,2.63-.63,4.33-.42,1.69-1.38,3.3-2.9,4.81-1.51,1.51-3.68,2.79-6.53,3.85-2.84,1.05-6.69,1.57-11.54,1.56-4.87,0-8.67-.58-11.42-1.73s-4.82-2.51-6.19-4.07c-1.38-1.56-2.22-3.16-2.53-4.82-.33-1.65-.49-2.98-.49-3.99l.12-106.17c0-2.66-.61-4.99-1.85-6.95-1.23-1.97-3.31-2.95-6.25-2.97-1.56,0-2.89.28-3.99.83-1.1.54-2.3,1.32-3.59,2.33l-2.86-3.44c2.1-1.74,4.46-3.45,7.08-5.15,2.61-1.69,5.43-3.17,8.46-4.46,3.03-1.28,6.28-2.33,9.77-3.14,3.49-.83,7.16-1.24,11.01-1.23,5.96,0,10.59.81,13.88,2.42,3.31,1.61,5.73,3.58,7.29,5.92s2.49,4.85,2.81,7.5c.31,2.66.47,5,.47,7.02l-.12,107.55Zm-46.33-161.79c.01-2.57.59-5.02,1.74-7.36,1.14-2.34,2.75-4.37,4.82-6.12,2.07-1.74,4.45-3.11,7.16-4.12,2.7-1,5.66-1.51,8.87-1.5,3.12,0,6.02.51,8.73,1.52,2.7,1.02,5.06,2.39,7.08,4.13,2.01,1.75,3.58,3.79,4.73,6.13s1.73,4.79,1.71,7.35c0,2.66-.58,5.14-1.73,7.43-1.15,2.3-2.72,4.3-4.76,5.98-2.02,1.7-4.38,3.04-7.08,4.05-2.71,1.01-5.61,1.51-8.73,1.51-3.21-.01-6.17-.51-8.87-1.53-2.71-1.01-5.09-2.37-7.16-4.07-2.05-1.69-3.66-3.69-4.79-5.98-1.15-2.29-1.73-4.77-1.73-7.43Z"/><path class="cls-1" d="m1799.23,378.47c.01-11.56-.51-20.79-1.56-27.72-1.04-6.92-2.44-12.2-4.18-15.83-1.73-3.62-3.66-6.01-5.77-7.16-2.11-1.14-4.26-1.73-6.46-1.73-2.67,0-5.02.72-7.1,2.13-2.06,1.41-3.85,3.04-5.37,4.87-1.51,1.84-2.8,3.67-3.85,5.5-1.06,1.84-1.96,3.21-2.68,4.13l-.1,91.87c0,1.2-.19,2.65-.55,4.33-.38,1.7-1.28,3.3-2.7,4.81-1.42,1.52-3.53,2.8-6.33,3.85-2.8,1.06-6.62,1.57-11.48,1.57-4.86-.01-8.69-.58-11.49-1.74-2.79-1.14-4.92-2.49-6.39-4.05s-2.38-3.17-2.74-4.82c-.37-1.65-.55-2.98-.55-3.99l.12-106.18c0-2.66-.61-4.97-1.85-6.95-1.23-1.97-3.31-2.95-6.25-2.95-1.56,0-2.89.27-3.99.82s-2.3,1.33-3.59,2.34l-2.86-3.44c2.1-1.74,4.46-3.46,7.08-5.15,2.61-1.7,5.43-3.18,8.46-4.46s6.28-2.34,9.77-3.16,7.16-1.23,11.01-1.23c5.96.01,10.59,1,13.88,2.98,3.3,1.97,5.73,4.33,7.29,7.08,1.56,2.76,2.49,5.62,2.8,8.6.32,2.98.49,5.48.49,7.49,3.39-4.86,7.24-9.2,11.57-13.05,1.74-1.65,3.68-3.25,5.84-4.81,2.15-1.56,4.45-2.95,6.89-4.18,2.43-1.24,5-2.22,7.7-2.95,2.71-.73,5.48-1.1,8.32-1.09,6.24,0,11.76,1.2,16.58,3.59,4.79,2.39,8.85,6.38,12.16,11.98,3.29,5.6,5.79,13,7.53,22.22s2.6,20.66,2.58,34.31c-.01,13.3-1.21,24.85-3.62,34.66-2.4,9.82-5.52,18.15-9.38,25.03-3.86,6.86-8.21,12.48-13.09,16.82-4.86,4.36-9.75,7.76-14.71,10.24-4.96,2.47-9.7,4.18-14.24,5.14-4.54.96-8.46,1.47-11.76,1.57l-1.51-5.64c2.76-.65,5.31-1.65,7.64-3.03,2.34-1.37,4.46-3.39,6.39-6.03,1.93-2.67,3.63-6.03,5.1-10.11s2.74-9.19,3.8-15.33c1.06-6.14,1.84-13.41,2.37-21.8.51-8.39.78-18.18.79-29.36Z"/><path class="cls-1" d="m310.46,428.29c0-2.94-1.07-5.11-3.23-6.55-2.15-1.42-4.51-2.13-7.08-2.13-5.13-.01-10.13.74-14.99,2.25-4.86,1.51-9.22,3.57-13.07,6.17-3.86,2.61-6.95,5.73-9.3,9.35-2.34,3.62-3.52,7.54-3.52,11.75,0,2.94.38,5.28,1.16,7.02.78,1.75,1.67,3.06,2.68,3.92,1.01.87,2.04,1.43,3.09,1.65,1.05.24,1.81.36,2.27.36,2.29,0,4.17-.4,5.64-1.16,1.47-.78,2.81-1.61,3.99-2.48,1.2-.86,2.31-1.69,3.37-2.47,1.05-.78,2.27-1.16,3.64-1.16,1.1,0,2.27.26,3.5.75,1.24.51,2.38,1.32,3.44,2.42s1.94,2.54,2.68,4.33,1.09,3.96,1.09,6.53c0,3.67-.72,6.83-2.14,9.49s-3.26,4.88-5.51,6.67c-2.25,1.78-4.81,3.11-7.7,3.98-2.9.87-5.76,1.3-8.6,1.29-4.4,0-8.37-.75-11.89-2.28-3.53-1.52-6.53-3.61-9.01-6.26-2.47-2.67-4.35-5.79-5.63-9.36-1.28-3.58-1.91-7.39-1.91-11.42.01-11.47,2.91-20.89,8.7-28.27,5.78-7.38,13.65-13.19,23.61-17.44,9.95-4.26,21.55-7.17,34.8-8.77,13.25-1.59,27.35-2.38,42.3-2.35,17.05.01,32.48,1.75,46.28,5.2,13.79,3.45,25.59,9.04,35.39,16.75,9.81,7.71,17.36,17.78,22.67,30.21,5.31,12.44,7.95,27.59,7.93,45.47s-2.85,33.74-8.51,47.57c-5.66,13.85-13.37,25.47-23.14,34.85-9.78,9.4-21.25,16.53-34.41,21.43-13.16,4.88-27.26,7.33-42.3,7.31-10-.01-18.04-.5-24.14-1.47-6.1-.97-10.8-2.63-14.09-4.97-3.3-2.34-5.5-5.46-6.6-9.36-1.09-3.9-1.64-8.82-1.63-14.79l.17-154.03Zm45.22,155.32c0,5.22,1.16,8.96,3.49,11.21s5.79,3.37,10.38,3.39c6.88,0,13.23-1.51,19.05-4.53,5.83-3.02,10.85-8.22,15.08-15.6,4.23-7.38,7.54-17.21,9.93-29.49,2.4-12.29,3.61-27.73,3.62-46.34.01-12.46-.74-23.27-2.23-32.39-1.51-9.13-3.49-16.87-5.96-23.25-2.47-6.37-5.29-11.56-8.45-15.55-3.15-4-6.39-7.11-9.68-9.37-3.3-2.24-6.54-3.76-9.69-4.54-3.16-.79-5.98-1.18-8.46-1.19-5.96,0-10.27,1.32-12.93,3.98-2.67,2.66-3.99,7.43-4,14.31l-.16,149.37Z"/><path class="cls-1" d="m529.01,546.8c0,2.94.43,6.12,1.3,9.56s2.12,6.9,3.77,10.39c1.64,3.49,3.68,6.81,6.11,9.97,2.42,3.17,5.22,6,8.37,8.48,3.16,2.47,6.67,4.45,10.51,5.92,3.85,1.47,8.07,2.21,12.66,2.21,3.21,0,6.19-.36,8.94-1.09,2.75-.73,5.32-1.74,7.71-3.02,2.38-1.28,4.67-2.77,6.88-4.46,2.21-1.7,4.4-3.5,6.6-5.42l3.44,3.3c-2.12,2.84-4.82,5.96-8.12,9.35-3.3,3.39-7.3,6.57-11.97,9.55-4.69,2.97-10.14,5.43-16.38,7.4-6.24,1.97-13.35,2.94-21.32,2.93-7.98,0-15.75-1.46-23.31-4.35-7.57-2.9-14.28-7.24-20.14-13.03-5.86-5.78-10.55-12.99-14.07-21.6-3.52-8.62-5.27-18.7-5.26-30.26,0-8.35,1.06-16.01,3.18-22.96,2.12-6.97,4.99-13.26,8.62-18.84,3.63-5.59,7.85-10.5,12.67-14.7s9.88-7.71,15.21-10.51c5.31-2.79,10.75-4.9,16.3-6.3,5.55-1.42,10.89-2.12,16.02-2.12,6.78.01,12.7.75,17.74,2.22s9.23,3.45,12.58,5.93c3.34,2.48,5.84,5.34,7.48,8.59,1.66,3.27,2.47,6.69,2.47,10.25,0,4.32-1.25,8.19-3.73,11.62-2.49,3.44-5.78,6.44-9.92,9l-54.36,31.99Zm27.68-27.88c1.19-.74,2.18-1.44,2.96-2.13.77-.69,1.39-1.51,1.85-2.47.47-.97.81-2.16,1.04-3.58.22-1.42.34-3.18.35-5.29,0-2.3-.24-4.85-.75-7.63-.5-2.8-1.35-5.43-2.54-7.91s-2.7-4.55-4.53-6.2c-1.83-1.65-4.03-2.48-6.6-2.48-3.3,0-6.12.98-8.46,2.94-2.34,1.98-4.26,4.53-5.78,7.63-1.51,3.12-2.71,6.67-3.59,10.66s-1.55,7.99-2.01,12.03c-.46,4.03-.74,7.9-.84,11.62-.09,3.71-.14,6.85-.14,9.42l29.04-16.61Z"/><path class="cls-1" d="m668.14,478.31c-2.11,0-4.1.27-5.98.83-1.88.54-3.55,1.43-5.02,2.67-1.46,1.24-2.62,2.79-3.45,4.67-.82,1.88-1.24,4.1-1.24,6.67,0,3.58,1.3,7.13,3.91,10.66,2.61,3.53,5.86,7.21,9.75,11.01,3.89,3.82,8.11,7.77,12.64,11.85,4.54,4.08,8.75,8.4,12.64,12.94,3.89,4.54,7.15,9.38,9.75,14.52,2.6,5.14,3.91,10.65,3.9,16.52,0,6.6-1.14,12.46-3.39,17.59-2.26,5.14-5.47,9.49-9.65,13.07-4.17,3.57-9.22,6.29-15.14,8.16-5.92,1.88-12.5,2.81-19.74,2.8-6.33,0-12.06-.91-17.19-2.7-5.13-1.79-9.69-4-13.67-6.61-3.99-2.62-7.4-5.41-10.24-8.34-2.84-2.94-5.04-5.6-6.6-7.99l4.82-3.43c1.2,1.37,2.7,2.86,4.54,4.46,1.83,1.62,3.87,3.11,6.11,4.49s4.65,2.51,7.22,3.37c2.56.87,5.18,1.32,7.84,1.32,6.6,0,12.01-1.57,16.23-4.73,4.23-3.16,6.34-7.85,6.35-14.09,0-3.49-1.14-7.08-3.43-10.8-2.29-3.72-5.18-7.54-8.66-11.49-3.48-3.95-7.23-8.03-11.26-12.25-4.03-4.23-7.78-8.58-11.26-13.08-3.49-4.5-6.37-9.14-8.65-13.91-2.29-4.77-3.43-9.72-3.43-14.85,0-5.78,1.18-10.82,3.53-15.12s5.46-7.89,9.36-10.73c3.9-2.83,8.35-4.96,13.35-6.38s10.16-2.12,15.47-2.11c6.14,0,11.74.56,16.78,1.66,5.04,1.11,9.37,2.79,12.99,5.04,3.62,2.25,6.41,5.08,8.39,8.46,1.96,3.4,2.95,7.35,2.95,11.84,0,3.49-1.16,6.51-3.45,9.08-2.29,2.56-5.5,3.84-9.63,3.84s-6.94-.86-9.01-2.56c-2.06-1.69-3.09-4-3.09-6.94,0-1.93.49-3.44,1.45-4.54.96-1.1,2.04-1.99,3.23-2.68,1.2-.68,2.28-1.28,3.24-1.78.97-.51,1.44-1.18,1.44-1.99,0-2.57-1.37-4.62-4.12-6.14-2.75-1.51-6.28-2.28-10.59-2.28Z"/><path class="cls-1" d="m774.46,597.81c0,1.2-.21,2.65-.62,4.33-.42,1.7-1.38,3.31-2.9,4.82s-3.7,2.79-6.54,3.85c-2.84,1.05-6.69,1.57-11.56,1.56-4.86,0-8.66-.58-11.41-1.73-2.75-1.15-4.81-2.51-6.19-4.07s-2.22-3.16-2.54-4.82c-.32-1.65-.48-2.98-.48-3.99l.12-106.18c0-2.66-.61-4.97-1.85-6.94-1.23-1.97-3.32-2.95-6.25-2.97-1.56,0-2.89.28-3.99.82-1.1.55-2.29,1.33-3.58,2.34l-2.88-3.44c2.11-1.74,4.47-3.45,7.09-5.15,2.61-1.69,5.43-3.18,8.46-4.46,3.04-1.28,6.29-2.33,9.77-3.14,3.48-.83,7.15-1.24,11.01-1.24,5.96.01,10.59.82,13.89,2.43,3.3,1.61,5.72,3.58,7.28,5.92,1.55,2.34,2.49,4.85,2.81,7.5.31,2.66.48,5,.47,7.01l-.12,107.55Zm-46.32-161.78c0-2.57.58-5.02,1.73-7.36,1.14-2.34,2.75-4.37,4.82-6.11,2.06-1.74,4.45-3.11,7.15-4.12,2.71-1.01,5.66-1.51,8.88-1.51s6.03.51,8.73,1.52c2.7,1.01,5.06,2.39,7.08,4.13,2.01,1.75,3.59,3.8,4.74,6.14,1.14,2.34,1.71,4.79,1.71,7.35,0,2.66-.57,5.14-1.73,7.43-1.14,2.3-2.72,4.28-4.75,5.98-2.02,1.7-4.38,3.04-7.08,4.05-2.71,1-5.62,1.51-8.74,1.5-3.22,0-6.17-.51-8.87-1.52-2.7-1.01-5.09-2.37-7.15-4.07-2.06-1.7-3.66-3.69-4.81-5.98s-1.71-4.77-1.71-7.43Z"/><path class="cls-1" d="m803.29,523.71c0-9.36,1.65-17.53,4.91-24.55,3.26-7.01,7.64-12.87,13.15-17.59,5.51-4.72,11.88-8.23,19.13-10.56,7.25-2.34,14.85-3.5,22.83-3.49,7.98.01,15.55,1.07,22.69,3.18,7.15,2.12,13.47,5.38,18.97,9.79,1.75-2.66,3.16-5.46,4.26-8.39,1.11-2.94,1.66-5.87,1.66-8.81,0-3.85-1.02-6.92-3.09-9.22-2.05-2.29-4.69-3.44-7.89-3.45v-3.99c2.01-.63,3.8-1.2,5.36-1.71,1.56-.49,2.98-.88,4.27-1.15,1.28-.28,2.57-.49,3.85-.61,1.28-.14,2.71-.22,4.27-.22,4.31.01,7.61,1.36,9.89,4,2.28,2.67,3.43,6.34,3.43,11.02,0,2.75-.65,5.47-1.93,8.17-1.29,2.71-2.89,5.31-4.83,7.77-1.93,2.47-4.06,4.81-6.4,7.01s-4.57,4.13-6.68,5.77c3.84,4.41,6.81,9.55,8.92,15.42,2.1,5.87,3.16,12.57,3.15,20.08,0,9.45-1.66,17.8-4.91,25.03-3.27,7.24-7.64,13.33-13.16,18.27-5.5,4.95-11.89,8.68-19.12,11.2-7.25,2.52-14.86,3.77-22.84,3.76-4.68,0-9.27-.42-13.75-1.25-4.49-.83-8.71-2.02-12.66-3.59-1.47,1.1-2.72,2.47-3.79,4.12-1.05,1.65-1.57,3.49-1.57,5.51,0,3.39,1.45,5.91,4.38,7.57,2.93,1.65,6.83,2.85,11.68,3.59,4.87.74,10.36,1.19,16.51,1.38,6.14.2,12.44.5,18.91.92,6.46.42,12.77,1.2,18.91,2.37,6.15,1.15,11.64,3.03,16.5,5.65s8.75,6.17,11.68,10.67c2.92,4.49,4.38,10.32,4.38,17.46,0,5.23-1.11,9.93-3.31,14.1s-5.17,7.84-8.88,10.99c-3.72,3.16-8.03,5.86-12.94,8.09-4.9,2.25-10.09,4.08-15.54,5.48-5.46,1.42-11.01,2.45-16.65,3.08-5.64.64-11.03.96-16.16.95-9.36-.01-17.77-.5-25.24-1.47-7.48-.97-13.82-2.47-19.05-4.49s-9.26-4.64-12.09-7.85c-2.84-3.22-4.25-7.07-4.25-11.56,0-3.22.74-6.17,2.21-8.87,1.46-2.71,3.42-5.18,5.85-7.43,2.43-2.24,5.16-4.26,8.19-6.03,3.02-1.79,6.1-3.45,9.21-5.01-4.58-1.93-8.4-4.85-11.47-8.76-3.07-3.89-4.6-9.05-4.59-15.47,0-3.4.6-6.53,1.8-9.42s2.73-5.55,4.62-7.98c1.88-2.42,3.95-4.62,6.2-6.6,2.24-1.96,4.42-3.63,6.55-5-3.77-2.21-7.22-4.9-10.39-8.07-3.16-3.17-5.86-6.74-8.1-10.74-2.24-3.99-3.98-8.41-5.22-13.27-1.23-4.87-1.85-10.14-1.84-15.83Zm99.31,122.1c0-2.93-1.14-5.33-3.43-7.22-2.3-1.88-5.29-3.4-9.01-4.54-3.7-1.16-7.92-2.03-12.65-2.63-4.72-.6-9.51-1.06-14.37-1.39-4.86-.32-9.59-.63-14.16-.91-4.59-.28-8.58-.65-11.97-1.11-1.93,1.38-3.78,2.86-5.57,4.46-1.8,1.61-3.36,3.3-4.67,5.09-1.34,1.79-2.42,3.67-3.25,5.64-.82,1.97-1.24,3.96-1.24,5.97,0,3.49,1,6.4,3.01,8.74,2.02,2.34,4.76,4.21,8.18,5.57,3.44,1.38,7.43,2.35,11.97,2.9,4.55.56,9.33.84,14.38.84,6.69.01,12.69-.56,18.01-1.7s9.82-2.7,13.48-4.65c3.67-1.97,6.48-4.24,8.41-6.81,1.92-2.56,2.9-5.31,2.9-8.25Zm-20.78-123.11c0-5.32-.26-10.51-.8-15.55-.55-5.05-1.51-9.54-2.88-13.49-1.37-3.94-3.25-7.13-5.63-9.56-2.38-2.43-5.45-3.64-9.21-3.66-3.76,0-6.83,1.25-9.22,3.77-2.38,2.52-4.26,5.83-5.64,9.91-1.39,4.08-2.35,8.71-2.91,13.88-.55,5.18-.82,10.43-.83,15.75,0,5.41.26,10.73.8,15.95.54,5.22,1.5,9.91,2.88,14.02,1.37,4.13,3.25,7.45,5.62,9.98,2.39,2.52,5.45,3.78,9.21,3.78,3.76.01,6.83-1.32,9.22-3.98,2.38-2.66,4.26-6.11,5.65-10.37,1.37-4.27,2.35-9.06,2.9-14.38.56-5.32.83-10.67.84-16.08Z"/><path class="cls-1" d="m1033.65,541.98c.01-11.56-.5-20.79-1.56-27.72-1.04-6.93-2.44-12.2-4.17-15.83-1.74-3.62-3.67-6.01-5.78-7.16-2.11-1.14-4.26-1.73-6.46-1.73-2.67,0-5.02.72-7.1,2.13-2.06,1.41-3.85,3.04-5.36,4.87-1.51,1.84-2.81,3.67-3.86,5.5-1.06,1.84-1.96,3.21-2.68,4.13l-.1,91.87c0,1.2-.19,2.65-.55,4.33-.37,1.7-1.27,3.3-2.7,4.81-1.42,1.52-3.53,2.8-6.33,3.85-2.8,1.06-6.63,1.57-11.49,1.57-4.86-.01-8.69-.58-11.49-1.74-2.79-1.14-4.92-2.49-6.39-4.05-1.46-1.56-2.37-3.17-2.74-4.82s-.55-2.98-.55-3.99l.12-106.18c0-2.66-.6-4.97-1.84-6.95-1.24-1.97-3.32-2.95-6.26-2.95-1.56,0-2.89.27-3.99.82s-2.29,1.33-3.58,2.34l-2.88-3.45c2.1-1.73,4.46-3.45,7.08-5.14,2.62-1.7,5.45-3.18,8.46-4.46,3.03-1.28,6.28-2.34,9.77-3.16,3.49-.82,7.16-1.23,11.01-1.23,5.96.01,10.59,1,13.89,2.98,3.31,1.97,5.74,4.33,7.29,7.08,1.56,2.75,2.49,5.62,2.81,8.6.31,2.98.47,5.48.47,7.49,3.39-4.86,7.25-9.2,11.57-13.05,1.74-1.65,3.68-3.25,5.84-4.81,2.16-1.56,4.46-2.95,6.89-4.18,2.43-1.24,5-2.22,7.7-2.95,2.71-.73,5.48-1.1,8.32-1.1,6.24.01,11.76,1.21,16.58,3.61,4.81,2.39,8.85,6.38,12.16,11.98,3.29,5.6,5.8,13,7.53,22.22,1.74,9.22,2.6,20.66,2.58,34.31-.01,13.3-1.21,24.85-3.62,34.66-2.4,9.82-5.51,18.15-9.38,25.03-3.85,6.86-8.21,12.48-13.08,16.82-4.87,4.36-9.77,7.76-14.73,10.24-4.95,2.47-9.7,4.18-14.24,5.14-4.54.96-8.46,1.47-11.76,1.57l-1.5-5.64c2.75-.65,5.29-1.66,7.63-3.03s4.46-3.39,6.39-6.03c1.94-2.67,3.63-6.03,5.1-10.11,1.48-4.08,2.74-9.19,3.81-15.33,1.05-6.14,1.84-13.41,2.35-21.8.51-8.39.78-18.18.79-29.36Z"/><path class="cls-1" d="m527.14,35.4c-1.9,11.96,2.72,25.14,13.3,27.67,8.13-.14,9.67-12.32,7.37-23.08-2.3-7.95-5.77-10.13-12.58-11.68-10.3-2.34-20.86,8.14-26.2,16.56-14.6,22.99-16.5,52.38-4.97,76.78,23.71-8.77,49.93-17.65,74.17-10.24,14.49,4.43,26.16,14.15,38.82,21.99,18.44,11.42,39.42,19.06,57.84,30.5,24.28,15.07,43.96,37.31,51.36,63.33,6.01,21.13,3.77,43.47,0,65.04-5.59,32.03-17.98,67.67-50.14,81.17-23.43,9.84-49.43,14.71-73.58,19.71-48.95,14.05-81.02,10.27-117.38-5.4-14.44-6.22-30.86,1.84-46.08,6.25-20.8,6.03-43.95,4.95-63.97-2.98-12.31-4.88-23.39-12.2-36.03-16.31-15.36-4.99-32.39-5.01-47.28-11.07-24.9-10.14-38.73-35.11-44.61-59.52-8.57-35.6-2.77-76.26,24.87-102.49,7.01-6.65,15.26-12.26,21.21-19.73,8.14-10.24,11.29-23.13,18.45-33.97,9.59-14.52,26.57-24.73,44.9-27,14.16-1.75,28.87.97,42.66-2.44,10.09-2.5,18.9-8.1,28.55-11.79,9.65-3.69,21.43-5.21,30.05.2-1.22-23.53-2.28-47.96,7.54-69.74,9.82-21.78,33.85-40.08,59.28-36.78,24.16,3.13,41.11,24.02,49,45.19,3.33,8.92,5.57,18.56,3.32,27.76-2.25,9.21-9.94,17.8-20.11,19.19-11.34,1.55-22.07-6.08-27.77-15.19-7.88-12.61-8.66-28.74-2.01-41.94m-62.55,298.2c-.7-22.76,12.64-43.69,18.41-65.84,6.37-24.48,3.16-50.95-8.91-73.54,5.65-3.25,13.54-1.08,18.07,3.41,4.53,4.49,6.42,10.68,7.68,16.69,3.76,17.89,3.32,36.51-1.28,54.23-4.14,15.93-11.57,31.07-15.1,47.12-3.53,16.06-2.56,34.1,8.53,46.93,9.03,10.44,23.59,15.9,38.06,17.2,14.46,1.3,29-1.12,43.2-3.99,21.95-4.43,46.42-12.05,55.31-30.98,4.97-10.58,3.89-22.72,1.26-33.98-11.76-50.45-51.35-91.47-93.63-125.48,11.99-3.09,23.57,5.35,32.38,13.42,14.96,13.7,29.09,28.16,42.31,43.29,13.43,15.37,26.18,31.9,31.68,50.95,6.9,23.91,1.72,49.2-3.49,73.47,21.78-3.18,43.28-11.86,57.55-27.29,14.27-15.43,20.01-38.23,10.86-56.63-21.84-43.93-62.76-79.58-111.72-97.32,1.26-4.27,8-3.86,12.54-2.34,43.33,14.51,81.01,42.8,105.06,78.91-1.4-26.22-10.65-52.46-28.76-72.77-18.11-20.31-45.51-34.14-74.12-34.57-17.79-.27-35.5,4.45-53.19,2.79,12.36-5.35,24.72-10.7,37.08-16.05-10.06-10-25.29-14.54-40.11-15.13-14.82-.58-29.51,2.38-44,5.32,7.8,9.5,19.27,16.41,31.88,19.19-19.83,3.89-40.05-9.15-48.7-25.96-8.65-16.81-8.14-36.32-5.74-54.78,1.74-13.39,4.71-27.36,14.18-37.68,9.46-10.32,27.33-15.29,39.24-7.41,6.25,4.13,9.77,10.9,12.07,17.65,1.95,5.73,3.19,12.01,1.05,17.69-2.14,5.68-8.63,10.34-15.02,9.01,4.24,7.68,17.84,6.86,23.64.09,5.8-6.77,5.38-16.46,2.73-24.71-3.33-10.4-10.04-20.2-20.07-25.94-18.16-10.39-43.59-4.67-58.51,9.42-14.93,14.09-20.78,34.51-21.27,54.15-.36,14.22,1.76,28.62-1.22,42.58-3.35,15.65-13.28,30.03-27.28,39.49,38.57,11.79,81.31,11.75,119.87-.11,2.92,2.86-2.23,6.72-6.35,7.76-24.49,6.23-49.54,12.51-74.9,11.1-25.36-1.4-51.56-11.93-64.14-32.17,4.95,3.05,10.1,6.18,15.99,7.06,5.89.88,12.74-1.13,15.31-6.07,5.74-11.05,10.02-22.74,12.69-34.73-15.77,1.3-31.24,5.65-45.09,12.7,7.58,6.37,15.16,12.73,22.74,19.1-12.69,4.26-23.34-9.07-35.13-15.11-10.95-5.6-24.71-4.81-36.4-.63-11.68,4.18-21.74,11.39-31.6,18.49-8.88,6.39-18.59,14.29-18.52,24.64,28.92-11.47,61.96-23,90.86-11.53-36.74,1.32-73.95,11.75-101.81,33.78-27.86,22.04-45.02,56.59-39.51,89.93,5.51,33.35,13.91,56.07,68.37,67.46,15.49,4.64,13.32,2.88,11.81.56-1.19-2.63-3.38-7.27-5.21-10.98-11.65-28-9-65.14,5.99-95.51,14.99-30.38,43.43-54.96,77.38-66.87-27.78,23.13-56.18,48.2-67.63,80.96-5.76,16.47-6.86,34.05-5.91,51.32.65,11.87,2.37,24.05,8.7,34.41,7.7,12.61,21.76,21.35,36.93,25.26,15.17,3.92,31.39,3.36,46.85.54,8.73-1.59,18.01-4.35,23.02-11.1,6.47-8.73,3.37-20.37,3.05-30.92"/></svg>