<?xml version="1.0" encoding="UTF-8"?><svg id="Ebene_1" xmlns="http://www.w3.org/2000/svg" viewBox="0 0 152.84 56.27"><defs><style>.cls-1{stroke-width:0px;}</style></defs><path class="cls-1" d="m15.1,46.75c.33,0,.59-.04.79-.12s.36-.2.47-.35c.11-.15.19-.34.23-.58s.06-.5.06-.82c0-.5-.05-.96-.15-1.36-.1-.4-.21-.76-.34-1.06-.12-.3-.24-.56-.35-.77-.11-.21-.16-.37-.16-.48,0-.15.05-.26.14-.34s.22-.13.4-.13c.3,0,.52.03.66.09.13.06.23.19.3.38.24.69.42,1.47.54,2.34.12.87.17,1.85.17,2.95,0,.82-.04,1.48-.11,2-.07.52-.2.92-.39,1.22-.18.3-.43.5-.75.61s-.72.16-1.22.16l-12.97-.03c-.17,0-.3.02-.4.06-.1.04-.18.09-.23.16-.06.07-.09.15-.11.24-.02.09-.03.2-.03.31,0,.17.03.38.08.62s.13.51.24.78c.11.27.24.55.39.83.16.28.33.53.53.74.2.22.42.4.66.53.24.14.51.21.79.21.24,0,.44-.03.58-.1s.25-.14.33-.22c.07-.08.12-.17.14-.26.02-.09.03-.15.03-.19,0-.19-.03-.35-.1-.47-.06-.12-.13-.23-.2-.33-.07-.1-.14-.19-.21-.28-.06-.09-.1-.19-.1-.3,0-.09.02-.19.06-.29.04-.1.11-.2.2-.28.09-.09.21-.16.36-.22.15-.06.33-.09.54-.09.3,0,.57.06.79.18.22.12.41.27.55.46s.26.4.33.64.11.48.11.71c0,.37-.06.69-.19.99s-.3.54-.52.75-.48.36-.78.47c-.3.11-.61.16-.95.16-.53,0-1.01-.1-1.44-.29-.44-.19-.83-.45-1.18-.78-.35-.33-.65-.72-.92-1.17-.26-.45-.48-.93-.65-1.44-.17-.52-.3-1.06-.39-1.62-.09-.56-.13-1.13-.13-1.69,0-.62.06-1.11.18-1.45.12-.35.26-.6.43-.76.17-.16.34-.26.53-.29.18-.03.34-.04.46-.04l12.89.03h0Z"/><path class="cls-1" d="m3.26,39.75c-.21,0-.42-.05-.61-.14-.19-.1-.36-.23-.51-.4-.14-.17-.26-.37-.34-.59s-.12-.47-.12-.74.04-.5.13-.72.2-.42.34-.59c.15-.17.31-.3.51-.39.2-.1.4-.14.61-.14.22,0,.43.05.62.14.19.1.36.23.5.4.14.17.25.36.34.59.08.22.12.47.12.73s-.04.51-.13.74c-.08.22-.2.42-.34.59-.14.17-.31.3-.5.4-.19.1-.4.14-.62.14h0Zm13.43-3.83c.1,0,.22.02.36.05.14.03.27.11.4.24.13.13.23.31.32.54.09.24.13.56.13.96s-.05.72-.15.95c-.1.23-.21.4-.34.51-.13.11-.26.18-.4.21-.14.03-.25.04-.33.04l-8.81-.02c-.22,0-.41.05-.58.15-.16.1-.25.28-.25.52,0,.13.02.24.07.33.05.09.11.19.19.3l-.29.24c-.14-.18-.29-.37-.43-.59-.14-.22-.26-.45-.37-.7-.11-.25-.19-.52-.26-.81-.07-.29-.1-.59-.1-.91,0-.49.07-.88.2-1.15.13-.27.3-.48.49-.6.2-.13.4-.21.62-.23.22-.03.41-.04.58-.04l8.93.02h0Z"/><path class="cls-1" d="m6.86,29.32l8.44.02c.4,0,.68-.07.84-.23.16-.15.23-.36.24-.63,0-.21-.06-.39-.17-.55s-.24-.3-.39-.41c-.16-.14-.35-.26-.56-.36l.16-.35c.24.11.51.25.8.41.29.16.56.36.8.62.25.26.45.58.62.98s.25.88.25,1.48c0,.34-.05.66-.15.96-.1.31-.26.58-.47.82-.21.24-.48.43-.8.58s-.7.22-1.15.21l-8.46-.02v1.28h-.83c0-.21-.05-.51-.16-.89-.11-.38-.29-.77-.55-1.17s-.6-.77-1.04-1.12c-.43-.34-.97-.59-1.61-.73v-.91s3.37,0,3.37,0v-1.86c0-.61-.1-.91-.3-.91-.08,0-.13.04-.15.11-.03.08-.06.16-.1.26-.04.1-.1.18-.18.26-.08.08-.2.11-.38.11-.21,0-.38-.07-.5-.2-.12-.13-.18-.31-.18-.52,0-.14.03-.26.09-.36.06-.1.13-.19.23-.26.1-.07.2-.12.33-.15.12-.03.24-.05.37-.05.49,0,.89.15,1.18.43.29.29.44.74.44,1.38v1.77s0,0,0,0Z"/><path class="cls-1" d="m6.88,21.44l8.44.02c.4,0,.68-.07.84-.23.16-.15.23-.36.24-.63,0-.21-.06-.39-.17-.55-.11-.16-.24-.3-.39-.41-.16-.14-.35-.26-.56-.36l.16-.35c.24.12.51.25.8.41.29.16.56.36.8.62.25.26.45.59.62.98s.25.88.25,1.48c0,.34-.05.66-.15.96-.1.31-.26.58-.47.82-.21.24-.48.43-.8.57-.32.14-.7.22-1.15.21l-8.46-.02v1.28s-.83,0-.83,0c0-.21-.05-.51-.16-.89-.11-.38-.29-.77-.55-1.17s-.6-.77-1.04-1.12c-.43-.34-.97-.59-1.61-.73v-.91s3.37,0,3.37,0v-1.86c0-.61-.1-.91-.3-.91-.08,0-.13.04-.15.11-.03.08-.06.16-.1.26-.04.1-.1.18-.18.26-.08.08-.2.11-.38.11-.21,0-.38-.07-.5-.2-.12-.13-.18-.31-.18-.52,0-.14.03-.26.09-.36.06-.1.13-.19.23-.26.1-.07.2-.12.33-.15.12-.03.24-.05.37-.05.49,0,.89.15,1.18.43.29.29.44.74.44,1.38v1.77s0,0,0,0Z"/><path class="cls-1" d="m16.76,13.76c.1,0,.22.02.35.05s.27.12.39.24c.12.13.23.31.31.55.09.24.13.56.13.96s-.05.72-.15.95c-.1.23-.21.4-.34.51-.13.11-.26.18-.4.2-.14.03-.25.04-.33.04l-14.73-.03c-.22,0-.41.05-.58.15-.16.1-.25.28-.25.52,0,.13.02.24.06.34.04.09.1.2.19.3l-.27.23c-.14-.18-.29-.37-.43-.58-.14-.21-.26-.45-.37-.7-.11-.25-.19-.53-.26-.82S0,16.07,0,15.76c0-.49.07-.88.2-1.15.13-.27.3-.47.49-.6.2-.13.4-.21.62-.23s.41-.04.58-.04l14.87.03h0Z"/><path class="cls-1" d="m12.54,7.93c.24,0,.51-.03.79-.11.29-.07.57-.18.86-.31.29-.14.57-.31.83-.51.26-.2.5-.43.7-.69s.37-.55.49-.87c.12-.32.18-.67.18-1.05,0-.27-.03-.51-.09-.74-.06-.23-.14-.44-.25-.64-.11-.2-.23-.39-.37-.57-.14-.18-.29-.37-.45-.55l.27-.28c.24.18.49.4.77.67.28.27.55.61.79.99.25.39.45.84.61,1.36s.24,1.11.24,1.77c0,.66-.12,1.31-.36,1.93-.24.63-.6,1.18-1.08,1.67-.48.49-1.08.87-1.79,1.17-.72.29-1.55.44-2.51.43-.69,0-1.33-.09-1.91-.27-.58-.18-1.1-.41-1.56-.72s-.87-.65-1.22-1.05c-.35-.4-.64-.82-.87-1.26-.23-.44-.41-.89-.52-1.35-.12-.46-.18-.9-.17-1.33,0-.56.06-1.05.19-1.47.12-.42.29-.77.49-1.04.21-.28.44-.48.71-.62.27-.14.55-.21.85-.2.36,0,.68.1.96.31.28.21.53.48.75.82l2.65,4.52h0Zm-2.31-2.3c-.06-.1-.12-.18-.18-.25-.06-.06-.13-.12-.21-.15s-.18-.07-.3-.09-.26-.03-.44-.03c-.19,0-.4.02-.63.06-.23.04-.45.11-.66.21-.21.1-.38.22-.51.38s-.21.33-.21.55c0,.27.08.51.24.7.16.2.37.35.63.48.26.13.55.23.88.3.33.07.66.13,1,.17.33.04.66.06.96.07.31,0,.57.01.78.01l-1.38-2.41h0Z"/><path class="cls-1" d="m70.59,35.52c0,.59-.16,1.01-.46,1.28-.31.27-.78.4-1.41.4-.64,0-1.11-.13-1.42-.4-.3-.27-.45-.69-.45-1.28v-13.65c.01-.42-.27-.63-.85-.63-.42,0-.84.06-1.27.19-.43.13-.82.3-1.16.51-.35.22-.63.48-.85.78-.22.3-.33.63-.33.98,0,.24.03.44.1.58.06.14.14.25.22.32s.17.12.26.14.15.03.19.03c.19,0,.35-.03.47-.1.12-.06.23-.13.33-.21.1-.07.19-.14.28-.21.09-.06.19-.1.3-.1.09,0,.19.02.29.06.1.04.2.11.28.2s.16.21.22.36c.06.15.09.33.09.54,0,.3-.06.57-.18.79-.12.22-.27.41-.46.55-.19.15-.4.26-.64.33s-.48.11-.71.11c-.37,0-.69-.06-.99-.19-.29-.13-.54-.3-.75-.52-.2-.22-.36-.48-.47-.78-.11-.3-.16-.61-.16-.95,0-.63.12-1.19.36-1.67s.57-.9,1-1.25c.43-.35.95-.64,1.55-.87.6-.23,1.27-.41,2-.55s1.51-.23,2.35-.29c.83-.06,1.7-.08,2.6-.08,2.18,0,3.82.42,4.94,1.25,1.12.83,1.68,2.03,1.67,3.59,0,.76-.1,1.43-.31,2.02-.2.59-.47,1.09-.81,1.51-.34.42-.73.76-1.17,1.03-.44.26-.9.45-1.37.56s-.95.16-1.42.13c-.48-.02-.92-.11-1.33-.26l.16-.49c.57.18,1.04.18,1.41.02.37-.16.66-.45.87-.87.21-.42.36-.95.44-1.59.08-.64.12-1.34.12-2.11,0-.58-.06-1.11-.18-1.58-.12-.48-.29-.88-.5-1.22-.21-.34-.45-.6-.73-.78-.28-.19-.57-.28-.88-.28-.24,0-.44.04-.6.11s-.28.16-.37.27c-.09.11-.15.23-.18.35-.03.13-.06.25-.06.36v13.54s-.01,0-.01,0Z"/><path class="cls-1" d="m89.15,35.05c0,.07,0,.14.01.22,0,.08.03.16.05.23.03.07.08.13.14.18.06.05.15.07.26.07.14,0,.27-.05.39-.15.11-.1.22-.21.32-.31l.27.24c-.11.16-.26.34-.43.53-.17.19-.38.38-.62.55-.24.18-.52.32-.83.44s-.67.18-1.06.18c-.33,0-.63-.04-.87-.13s-.46-.21-.63-.35c-.17-.15-.3-.32-.38-.53s-.13-.42-.13-.64v-.51c-.38.41-.78.77-1.2,1.08-.18.14-.38.27-.58.4s-.42.24-.64.35c-.22.1-.45.18-.68.24-.24.06-.47.09-.71.09-.46,0-.85-.08-1.17-.25-.32-.16-.58-.38-.78-.64-.2-.27-.34-.57-.43-.9-.09-.33-.14-.67-.14-1v-7.07c0-.07,0-.14,0-.22s-.03-.16-.06-.23c-.03-.07-.08-.13-.14-.18-.06-.05-.15-.07-.26-.07-.14,0-.26.05-.38.15-.12.1-.22.21-.31.31l-.29-.24c.11-.16.26-.34.43-.53.17-.19.38-.38.62-.55.24-.18.52-.32.84-.44s.67-.18,1.06-.18c.34,0,.63.04.88.13.25.09.46.21.63.35.17.15.29.32.38.53.08.2.13.42.13.64v7.63c0,.11,0,.22.04.33.03.11.08.21.15.3s.15.17.24.22c.1.06.22.09.35.09.22,0,.44-.06.66-.17s.42-.25.61-.4.34-.31.48-.46c.13-.15.23-.27.29-.34v-6.67c0-.07,0-.14,0-.22,0-.08-.03-.16-.06-.23-.03-.07-.08-.13-.14-.18-.06-.05-.15-.07-.26-.07-.14,0-.26.05-.38.15-.12.1-.22.21-.31.31l-.29-.24c.11-.16.26-.34.43-.53.17-.19.38-.38.62-.55.24-.18.52-.32.84-.44s.67-.18,1.06-.18c.34,0,.63.04.88.13.25.09.46.21.63.36.17.15.29.32.38.52.08.2.12.42.12.65v8.21s0,0,0,0Z"/><path class="cls-1" d="m101.9,36.04c0,.1-.02.22-.05.35-.03.14-.11.27-.22.39-.12.12-.29.23-.53.31-.24.09-.56.13-.96.13-.4,0-.72-.05-.95-.14-.23-.1-.41-.21-.53-.34-.12-.13-.19-.26-.22-.4-.03-.14-.05-.25-.05-.33v-8.07c0-.11,0-.22-.04-.33s-.08-.21-.14-.3c-.06-.09-.14-.17-.23-.22-.09-.06-.2-.09-.32-.09-.2,0-.41.06-.61.18-.2.12-.38.25-.56.4-.17.15-.32.3-.44.46-.13.15-.22.27-.27.34v7.65c0,.1-.02.22-.05.35-.03.14-.11.27-.22.39-.12.12-.29.23-.53.31-.23.09-.55.13-.95.13s-.72-.05-.95-.14c-.23-.1-.41-.21-.53-.34s-.2-.26-.23-.4c-.03-.14-.05-.25-.05-.33v-8.81c0-.22-.04-.41-.14-.58-.1-.16-.27-.25-.52-.25-.13,0-.24.02-.33.07s-.19.11-.3.19l-.24-.29c.17-.14.37-.29.59-.43.22-.14.45-.26.7-.37s.52-.19.81-.26.59-.1.91-.1c.49,0,.88.08,1.15.25.27.16.48.36.61.59.13.23.21.47.23.71.03.25.04.45.04.62.36-.4.74-.76,1.15-1.08.17-.14.35-.27.55-.4.2-.13.41-.24.62-.35.21-.1.43-.18.66-.24.23-.06.46-.09.68-.09.44,0,.82.08,1.13.24s.56.35.75.58c.19.22.33.46.42.71s.13.46.13.64c.37-.4.75-.76,1.15-1.08.17-.14.35-.27.55-.4.2-.13.41-.24.62-.35.22-.1.44-.18.66-.24.22-.06.45-.09.68-.09.44,0,.82.08,1.13.25.31.16.56.38.75.64.19.27.33.57.42.9.09.34.13.67.13,1.01v7.07c0,.07,0,.14,0,.22,0,.08.03.16.05.23.03.07.08.13.14.18s.15.07.26.07c.14,0,.27-.05.39-.15.11-.1.22-.21.32-.31l.27.24c-.11.16-.25.34-.42.53-.18.19-.38.38-.62.55-.24.18-.52.32-.83.44-.32.12-.67.18-1.07.18-.33,0-.63-.04-.87-.13s-.46-.21-.63-.35c-.17-.15-.3-.32-.38-.53s-.13-.42-.13-.64v-7.63c0-.11,0-.21-.04-.33-.03-.11-.07-.21-.13-.3s-.13-.17-.22-.22-.2-.09-.32-.09c-.21,0-.41.06-.61.18-.2.12-.39.25-.56.41-.17.15-.32.3-.44.45-.12.15-.21.27-.26.34v7.65s0,0,0,0Z"/><path class="cls-1" d="m111.14,27.22c0-.22-.05-.41-.15-.58-.1-.16-.27-.25-.52-.25-.13,0-.24.02-.33.07s-.19.11-.3.19l-.24-.29c.17-.14.37-.29.59-.43.22-.14.45-.26.7-.37.25-.11.52-.19.81-.26s.59-.1.91-.1c.34,0,.64.05.88.16.24.11.45.23.61.38.16.15.29.3.37.47.08.16.13.3.15.42.15-.21.33-.41.54-.58.21-.18.44-.32.69-.45.25-.12.51-.22.79-.29s.57-.1.86-.1c.61,0,1.16.13,1.65.38.5.25.92.62,1.27,1.12.35.49.62,1.11.82,1.84.19.73.28,1.58.28,2.53,0,1.11-.12,2.06-.35,2.84-.23.78-.54,1.42-.92,1.91-.38.5-.81.85-1.29,1.08-.48.22-.98.34-1.48.34-.42,0-.79-.04-1.1-.13-.32-.08-.59-.19-.82-.31s-.42-.25-.57-.37c-.15-.13-.27-.23-.37-.31v5.57c0,.1-.02.22-.05.35-.03.14-.11.27-.22.39-.12.13-.29.23-.53.32s-.55.14-.95.14c-.4,0-.72-.05-.95-.14-.23-.1-.41-.21-.53-.34-.12-.13-.2-.27-.23-.4-.03-.13-.05-.24-.05-.33l.02-14.47h0Zm3.5,7.28c0,.06.03.17.08.32.05.15.14.31.25.47.11.16.26.3.44.43.18.13.4.19.66.19.33,0,.62-.13.86-.38s.43-.6.58-1.04.26-.95.33-1.53c.07-.58.1-1.2.11-1.86,0-.82-.04-1.5-.13-2.07-.09-.56-.21-1.02-.38-1.36-.17-.35-.37-.6-.6-.75-.23-.16-.49-.23-.78-.23-.17,0-.34.05-.5.14-.17.1-.32.21-.45.35-.13.14-.24.3-.33.47-.08.18-.13.34-.13.5v6.36s0,0,0,0Z"/><path class="cls-1" d="m127.22,28.33c.27-.36.55-.72.86-1.09.3-.37.63-.7.98-1,.35-.3.73-.54,1.14-.73s.86-.28,1.35-.28c.43,0,.8.09,1.08.26.29.17.52.38.7.62.18.24.3.49.38.75.07.26.11.48.11.66,0,.33-.05.68-.13,1.04-.09.36-.24.72-.45,1.07-.21.35-.49.7-.84,1.03-.35.33-.79.63-1.33.91.71,1.52,1.41,2.82,2.08,3.91.68,1.09,1.33,1.99,1.96,2.7.63.7,1.23,1.22,1.81,1.56.58.34,1.13.5,1.65.5.09,0,.18-.01.27-.03.09-.02.18-.05.25-.08.08-.03.17-.07.26-.11l.22.4c-.21.11-.42.22-.63.32-.21.1-.46.19-.73.27-.27.08-.59.14-.95.18s-.78.07-1.28.07c-.45,0-.89-.05-1.33-.16-.44-.11-.88-.3-1.32-.57-.44-.27-.89-.64-1.34-1.1-.45-.46-.92-1.04-1.39-1.74s-.96-1.53-1.46-2.5c-.5-.97-1.02-2.1-1.56-3.39.73-.54,1.31-1.04,1.73-1.5.42-.46.74-.88.95-1.25.21-.37.35-.7.4-.99.05-.29.08-.54.08-.74,0-.03,0-.08-.01-.16s-.03-.14-.07-.21c-.04-.07-.1-.13-.18-.18s-.19-.08-.34-.08c-.28,0-.57.12-.85.36-.29.24-.57.53-.83.89-.26.35-.5.73-.72,1.14-.21.41-.39.78-.53,1.11v5.89c0,.1-.02.22-.06.35-.03.14-.12.27-.24.39s-.31.23-.55.31c-.24.09-.56.13-.96.13-.4,0-.72-.05-.95-.14-.23-.1-.4-.21-.51-.34s-.18-.26-.2-.4c-.03-.14-.04-.25-.04-.33l.02-14.73c0-.22-.05-.41-.15-.58-.1-.16-.27-.25-.52-.25-.13,0-.24.02-.34.06-.1.04-.2.11-.3.19l-.23-.27c.18-.14.37-.29.58-.43.21-.14.45-.26.7-.37.26-.11.53-.19.82-.26.29-.07.59-.1.91-.1.49,0,.88.07,1.15.2.27.13.47.3.6.49s.21.4.23.62c.03.22.04.41.04.58v7.13s0,0,0,0Z"/><path class="cls-1" d="m139.74,36.06c0,.1-.02.22-.05.36-.03.14-.11.27-.24.4-.13.13-.31.23-.54.32-.24.09-.56.13-.96.13-.4,0-.72-.05-.95-.14s-.4-.21-.51-.34c-.11-.13-.18-.26-.21-.4-.03-.14-.04-.25-.04-.33v-8.81c0-.22-.04-.41-.14-.58-.1-.16-.27-.24-.52-.25-.13,0-.24.02-.33.07-.09.04-.19.11-.3.19l-.24-.29c.17-.14.37-.29.59-.43.22-.14.45-.26.7-.37.25-.11.52-.19.81-.26.29-.07.59-.1.91-.1.49,0,.88.07,1.15.2.27.13.48.3.61.49s.21.4.23.62c.03.22.04.41.04.58v8.93s0,0,0,0Zm-3.85-13.43c0-.21.05-.42.14-.61.09-.19.23-.36.4-.51.17-.14.37-.26.59-.34.22-.08.47-.13.74-.12.26,0,.5.04.72.13.22.08.42.2.59.34.17.15.3.31.39.51s.14.4.14.61c0,.22-.05.43-.14.62-.1.19-.23.36-.4.5-.17.14-.36.25-.59.34-.22.08-.47.13-.72.13-.27,0-.51-.04-.74-.13-.22-.08-.42-.2-.59-.34-.17-.14-.3-.31-.4-.5-.1-.19-.14-.4-.14-.62h0Z"/><path class="cls-1" d="m149.33,31.41c0-.96-.04-1.73-.13-2.3-.09-.57-.2-1.01-.35-1.31-.14-.3-.3-.5-.48-.59-.18-.09-.35-.14-.54-.14-.22,0-.42.06-.59.18-.17.12-.32.25-.45.4-.13.15-.23.3-.32.46-.09.15-.16.27-.22.34v7.62c0,.1-.02.22-.05.36-.03.14-.11.27-.22.4-.12.13-.29.23-.53.32-.23.09-.55.13-.95.13-.4,0-.72-.05-.95-.14-.23-.09-.41-.21-.53-.34s-.2-.26-.23-.4c-.03-.14-.05-.25-.05-.33v-8.81c0-.22-.04-.41-.14-.58-.1-.16-.27-.24-.52-.24-.13,0-.24.02-.33.07s-.19.11-.3.19l-.24-.29c.17-.14.37-.29.59-.43.22-.14.45-.26.7-.37s.52-.19.81-.26.59-.1.91-.1c.49,0,.88.08,1.15.25.27.16.48.36.61.59.13.23.21.47.23.71.03.25.04.45.04.62.28-.4.6-.76.96-1.08.14-.14.31-.27.48-.4.18-.13.37-.24.57-.35.2-.1.41-.18.64-.24.22-.06.45-.09.69-.09.52,0,.98.1,1.38.3.4.2.73.53,1.01.99.27.46.48,1.08.62,1.84s.22,1.71.21,2.85c0,1.1-.1,2.06-.3,2.88-.2.82-.46,1.51-.78,2.08-.32.57-.68,1.04-1.09,1.4-.4.36-.81.64-1.22.85-.41.21-.81.35-1.18.43-.38.08-.7.12-.98.13l-.13-.47c.23-.05.44-.14.63-.25.19-.11.37-.28.53-.5.16-.22.3-.5.42-.84s.23-.76.32-1.27c.09-.51.15-1.11.2-1.81.04-.7.06-1.51.07-2.44h0Z"/><path class="cls-1" d="m25.77,35.55c0-.24-.09-.42-.27-.54-.18-.12-.37-.18-.59-.18-.43,0-.84.06-1.24.19s-.77.3-1.08.51c-.32.22-.58.48-.77.78-.19.3-.29.63-.29.98,0,.24.03.44.1.58.06.15.14.25.22.33.08.07.17.12.26.14.09.02.15.03.19.03.19,0,.35-.03.47-.1.12-.06.23-.13.33-.21.1-.07.19-.14.28-.21.09-.06.19-.1.3-.1.09,0,.19.02.29.06.1.04.2.11.29.2s.16.21.22.36.09.33.09.54c0,.3-.06.57-.18.79s-.27.41-.46.55c-.19.15-.4.26-.64.33-.24.07-.48.11-.71.11-.37,0-.69-.06-.99-.19-.29-.13-.54-.3-.75-.52-.21-.22-.36-.48-.47-.78-.11-.3-.16-.61-.16-.95,0-.95.24-1.73.72-2.35.48-.61,1.13-1.09,1.96-1.45.83-.35,1.79-.6,2.89-.73,1.1-.13,2.27-.2,3.51-.2,1.42,0,2.7.15,3.84.43,1.14.29,2.12.75,2.94,1.39.81.64,1.44,1.48,1.88,2.51.44,1.03.66,2.29.66,3.77,0,1.48-.24,2.8-.71,3.95-.47,1.15-1.11,2.11-1.92,2.89-.81.78-1.76,1.37-2.86,1.78-1.09.41-2.26.61-3.51.61-.83,0-1.5-.04-2-.12-.51-.08-.9-.22-1.17-.41-.27-.19-.46-.45-.55-.78-.09-.32-.14-.73-.14-1.23v-12.78s.01,0,.01,0Zm3.75,12.89c0,.43.1.74.29.93s.48.28.86.28c.57,0,1.1-.13,1.58-.38.48-.25.9-.68,1.25-1.29.35-.61.63-1.43.82-2.45.2-1.02.3-2.3.3-3.85,0-1.03-.06-1.93-.19-2.69-.13-.76-.29-1.4-.49-1.93-.21-.53-.44-.96-.7-1.29-.26-.33-.53-.59-.8-.78-.27-.19-.54-.31-.8-.38-.26-.07-.5-.1-.7-.1-.49,0-.85.11-1.07.33-.22.22-.33.62-.33,1.19v12.4s-.01,0-.01,0Z"/><path class="cls-1" d="m43.91,45.38c0,.24.04.51.11.79s.18.57.31.86c.14.29.31.57.51.83.2.26.43.5.69.7.26.2.55.37.87.49.32.12.67.18,1.05.18.27,0,.51-.03.74-.09.23-.06.44-.14.64-.25.2-.11.39-.23.57-.37.18-.14.37-.29.55-.45l.29.27c-.18.24-.4.49-.67.78-.27.28-.61.55-.99.79-.39.25-.84.45-1.36.61-.52.16-1.11.24-1.77.24-.66,0-1.31-.12-1.93-.36-.63-.24-1.19-.6-1.67-1.08-.49-.48-.88-1.08-1.17-1.79-.29-.72-.44-1.55-.44-2.51,0-.69.09-1.33.26-1.91.18-.58.41-1.1.72-1.56.3-.46.65-.87,1.05-1.22.4-.35.82-.64,1.26-.87.44-.23.89-.41,1.35-.52.46-.12.9-.18,1.33-.18.56,0,1.05.06,1.47.18s.77.29,1.04.49c.28.21.48.44.62.71.14.27.2.56.2.85,0,.36-.1.68-.31.96-.21.29-.48.53-.82.75l-4.51,2.66h0Zm2.3-2.31c.1-.06.18-.12.25-.18.06-.06.12-.13.15-.2.04-.08.07-.18.09-.3.02-.12.03-.26.03-.44,0-.19-.02-.4-.06-.63-.04-.23-.11-.45-.21-.66s-.22-.38-.38-.51c-.15-.14-.33-.21-.55-.21-.27,0-.51.08-.7.24-.19.16-.35.38-.48.63-.13.26-.22.55-.3.88s-.13.66-.17,1c-.04.33-.06.66-.07.96,0,.31-.01.57-.01.78l2.41-1.38h0Z"/><path class="cls-1" d="m55.45,39.7c-.18,0-.34.02-.5.07-.16.04-.29.12-.42.22-.12.1-.22.23-.29.39-.07.16-.1.34-.1.55,0,.3.11.59.32.88s.49.6.81.91c.32.32.67.64,1.05.98.38.34.73.7,1.05,1.07s.59.78.81,1.21.32.88.32,1.37c0,.55-.09,1.03-.28,1.46-.19.43-.45.79-.8,1.08-.35.3-.77.52-1.26.68-.49.16-1.04.23-1.64.23-.53,0-1-.08-1.43-.22-.43-.15-.8-.33-1.13-.55-.33-.22-.61-.45-.85-.69-.24-.24-.42-.46-.55-.66l.4-.28c.1.11.22.24.38.37.15.13.32.26.51.37s.39.21.6.28c.21.07.43.11.65.11.55,0,1-.13,1.35-.39.35-.26.53-.65.53-1.17,0-.29-.09-.59-.28-.9s-.43-.63-.72-.95-.6-.67-.93-1.02c-.33-.35-.65-.71-.93-1.09-.29-.37-.53-.76-.72-1.15-.19-.4-.28-.81-.28-1.23,0-.48.1-.9.29-1.25s.45-.65.78-.89c.32-.23.69-.41,1.11-.53s.84-.18,1.28-.18c.51,0,.97.05,1.39.14.42.09.78.23,1.08.42s.53.42.7.7c.16.28.24.61.24.98,0,.29-.1.54-.29.75-.19.21-.46.32-.8.32s-.58-.07-.75-.21c-.17-.14-.26-.33-.26-.58,0-.16.04-.29.12-.38s.17-.17.27-.22c.1-.06.19-.11.27-.15.08-.04.12-.1.12-.17,0-.21-.11-.38-.34-.51-.23-.13-.52-.19-.88-.19h0Z"/><path class="cls-1" d="m64.28,49.62c0,.1-.02.22-.05.36-.03.14-.11.27-.24.4s-.31.23-.54.32c-.24.09-.56.13-.96.13-.4,0-.72-.05-.95-.14-.23-.1-.4-.21-.51-.34s-.18-.26-.21-.4c-.03-.14-.04-.25-.04-.33v-8.81c0-.22-.04-.41-.14-.58-.1-.16-.28-.24-.52-.25-.13,0-.24.02-.33.07-.09.05-.19.11-.3.19l-.24-.29c.18-.14.37-.29.59-.43.22-.14.45-.26.7-.37.25-.11.52-.19.81-.26.29-.07.59-.1.91-.1.49,0,.88.07,1.15.2s.47.3.6.49c.13.19.21.4.23.62.03.22.04.41.04.58v8.93s0,0,0,0Zm-3.84-13.43c0-.21.05-.42.14-.61.09-.19.23-.36.4-.51.17-.14.37-.26.59-.34.22-.08.47-.13.74-.13s.5.04.72.13c.22.08.42.2.59.34.17.15.3.32.39.51.09.19.14.4.14.61s-.05.43-.14.62c-.09.19-.23.36-.39.5-.17.14-.36.25-.59.34-.22.08-.47.13-.73.12-.27,0-.51-.04-.74-.13-.22-.08-.42-.2-.59-.34s-.3-.31-.4-.5-.14-.4-.14-.62h0Z"/><path class="cls-1" d="m66.67,43.47c0-.78.14-1.45.41-2.04.27-.58.63-1.07,1.09-1.46s.99-.68,1.59-.88c.6-.19,1.23-.29,1.89-.29.66,0,1.29.09,1.88.26.59.18,1.12.45,1.57.81.15-.22.26-.45.35-.7.09-.24.14-.49.14-.73,0-.32-.08-.57-.26-.77-.17-.19-.39-.29-.65-.29v-.33c.17-.05.32-.1.44-.14.13-.04.25-.07.35-.1.11-.02.21-.04.32-.05.11-.01.22-.02.35-.02.36,0,.63.11.82.33.19.22.28.53.28.91,0,.23-.05.45-.16.68-.11.22-.24.44-.4.64-.16.21-.34.4-.53.58s-.38.34-.55.48c.32.37.57.79.74,1.28.17.49.26,1.04.26,1.67,0,.78-.14,1.48-.41,2.08-.27.6-.63,1.11-1.09,1.52-.46.41-.99.72-1.59.93-.6.21-1.23.31-1.9.31-.39,0-.77-.03-1.14-.1-.37-.07-.72-.17-1.05-.3-.12.09-.23.2-.31.34-.09.14-.13.29-.13.46,0,.28.12.49.36.63.24.14.57.24.97.3.4.06.86.1,1.37.11.51.02,1.03.04,1.57.08.54.03,1.06.1,1.57.2.51.1.97.25,1.37.47s.73.51.97.89c.24.37.36.86.36,1.45,0,.43-.09.82-.27,1.17s-.43.65-.74.91c-.31.26-.67.49-1.07.67-.41.19-.84.34-1.29.45-.45.12-.91.2-1.38.26-.47.05-.92.08-1.34.08-.78,0-1.47-.04-2.09-.12-.62-.08-1.15-.2-1.58-.37s-.77-.39-1-.65c-.24-.27-.35-.59-.35-.96,0-.27.06-.51.18-.74.12-.22.28-.43.49-.62.2-.19.43-.35.68-.5.25-.15.51-.29.76-.42-.38-.16-.7-.4-.95-.73-.25-.32-.38-.75-.38-1.28,0-.28.05-.54.15-.78s.23-.46.38-.66c.16-.2.33-.38.51-.55.19-.16.37-.3.54-.41-.31-.18-.6-.41-.86-.67-.26-.26-.49-.56-.67-.89-.19-.33-.33-.7-.43-1.1-.1-.4-.15-.84-.15-1.31h0Zm8.24,10.13c0-.24-.09-.44-.28-.6-.19-.16-.44-.28-.75-.38-.31-.1-.66-.17-1.05-.22-.39-.05-.79-.09-1.19-.12-.4-.03-.8-.05-1.18-.08-.38-.02-.71-.05-.99-.09-.16.11-.31.24-.46.37-.15.13-.28.27-.39.42-.11.15-.2.3-.27.47-.07.16-.1.33-.1.5,0,.29.08.53.25.73.17.19.4.35.68.46.29.11.62.2.99.24.38.05.77.07,1.19.07.56,0,1.05-.05,1.49-.14s.82-.22,1.12-.39c.3-.16.54-.35.7-.57.16-.21.24-.44.24-.68h0Zm-1.72-10.22c0-.44-.02-.87-.07-1.29-.05-.42-.13-.79-.24-1.12-.11-.33-.27-.59-.47-.79s-.45-.3-.76-.3c-.31,0-.57.1-.77.31-.2.21-.35.48-.47.82-.12.34-.2.72-.24,1.15-.05.43-.07.87-.07,1.31,0,.45.02.89.07,1.32.04.43.12.82.24,1.16.11.34.27.62.47.83.2.21.45.31.76.31.31,0,.57-.11.77-.33.2-.22.35-.51.47-.86.11-.35.2-.75.24-1.19.05-.44.07-.89.07-1.33h0Z"/><path class="cls-1" d="m85.79,44.98c0-.96-.04-1.73-.13-2.3-.09-.58-.2-1.01-.35-1.31-.14-.3-.3-.5-.48-.59-.18-.09-.35-.14-.54-.14-.22,0-.42.06-.59.18-.17.12-.32.25-.44.4-.13.15-.23.3-.32.46-.09.15-.16.27-.22.34v7.62c0,.1-.02.22-.05.36-.03.14-.11.27-.22.4-.12.13-.29.23-.53.32-.23.09-.55.13-.95.13-.4,0-.72-.05-.95-.14-.23-.09-.41-.21-.53-.34-.12-.13-.2-.26-.23-.4s-.05-.25-.05-.33v-8.81c0-.22-.04-.41-.14-.58-.1-.16-.28-.24-.52-.24-.13,0-.24.02-.33.07s-.19.11-.3.19l-.24-.29c.17-.14.37-.29.59-.43.22-.14.45-.26.7-.37.25-.11.52-.19.81-.26s.59-.1.91-.1c.49,0,.88.08,1.15.25.27.16.48.36.61.59.13.23.21.47.23.71.03.25.04.45.04.62.28-.4.6-.76.96-1.08.14-.14.31-.27.48-.4.18-.13.37-.24.57-.35.2-.1.41-.18.64-.24.22-.06.45-.09.69-.09.52,0,.98.1,1.38.3.4.2.73.53,1.01.99.27.46.48,1.08.62,1.84.14.77.22,1.71.21,2.85,0,1.1-.1,2.06-.3,2.88-.2.82-.46,1.51-.78,2.08-.32.57-.68,1.04-1.09,1.4-.4.36-.81.64-1.22.85-.41.2-.81.35-1.18.43-.38.08-.7.12-.98.13l-.12-.47c.23-.05.44-.14.63-.25s.37-.28.53-.5c.16-.22.3-.5.42-.84.12-.34.23-.76.32-1.27.09-.51.15-1.11.2-1.81s.06-1.51.07-2.44h0Z"/><path class="cls-1" d="m43.75,2.94c-.16.99.23,2.09,1.1,2.3.67-.01.8-1.02.61-1.92-.19-.66-.48-.84-1.04-.97-.85-.19-1.73.68-2.17,1.37-1.21,1.91-1.37,4.35-.41,6.37,1.97-.73,4.14-1.46,6.16-.85,1.2.37,2.17,1.17,3.22,1.83,1.53.95,3.27,1.58,4.8,2.53,2.02,1.25,3.65,3.1,4.26,5.26.5,1.75.31,3.61,0,5.4-.46,2.66-1.49,5.62-4.16,6.74-1.94.82-4.1,1.22-6.11,1.64-4.06,1.17-6.72.85-9.74-.45-1.2-.52-2.56.15-3.82.52-1.73.5-3.65.41-5.31-.25-1.02-.41-1.94-1.01-2.99-1.35-1.27-.41-2.69-.42-3.92-.92-2.07-.84-3.21-2.91-3.7-4.94-.71-2.95-.23-6.33,2.06-8.51.58-.55,1.27-1.02,1.76-1.64.68-.85.94-1.92,1.53-2.82.8-1.21,2.21-2.05,3.73-2.24,1.18-.15,2.4.08,3.54-.2.84-.21,1.57-.67,2.37-.98s1.78-.43,2.49.02c-.1-1.95-.19-3.98.63-5.79.82-1.81,2.81-3.33,4.92-3.05,2.01.26,3.41,1.99,4.07,3.75.28.74.46,1.54.28,2.3-.19.76-.82,1.48-1.67,1.59-.94.13-1.83-.5-2.3-1.26-.65-1.05-.72-2.39-.17-3.48m-5.19,24.75c-.06-1.89,1.05-3.63,1.53-5.46.53-2.03.26-4.23-.74-6.1.47-.27,1.12-.09,1.5.28s.53.89.64,1.39c.31,1.48.28,3.03-.11,4.5-.34,1.32-.96,2.58-1.25,3.91-.29,1.33-.21,2.83.71,3.9.75.87,1.96,1.32,3.16,1.43,1.2.11,2.41-.09,3.59-.33,1.82-.37,3.85-1,4.59-2.57.41-.88.32-1.89.1-2.82-.98-4.19-4.26-7.59-7.77-10.41,1-.26,1.96.44,2.69,1.11,1.24,1.14,2.41,2.34,3.51,3.59,1.11,1.28,2.17,2.65,2.63,4.23.57,1.98.14,4.08-.29,6.1,1.81-.26,3.59-.98,4.78-2.26,1.18-1.28,1.66-3.17.9-4.7-1.81-3.65-5.21-6.6-9.27-8.08.1-.35.66-.32,1.04-.19,3.6,1.2,6.72,3.55,8.72,6.55-.12-2.18-.88-4.35-2.39-6.04s-3.78-2.83-6.15-2.87c-1.48-.02-2.95.37-4.41.23,1.03-.44,2.05-.89,3.08-1.33-.83-.83-2.1-1.21-3.33-1.26-1.23-.05-2.45.2-3.65.44.65.79,1.6,1.36,2.65,1.59-1.65.32-3.32-.76-4.04-2.15-.72-1.4-.68-3.01-.48-4.55.14-1.11.39-2.27,1.18-3.13.79-.86,2.27-1.27,3.26-.62.52.34.81.9,1,1.46.16.48.26,1,.09,1.47s-.72.86-1.25.75c.35.64,1.48.57,1.96,0,.48-.56.45-1.37.23-2.05-.28-.86-.83-1.68-1.67-2.15-1.51-.86-3.62-.39-4.86.78-1.24,1.17-1.72,2.86-1.77,4.49-.03,1.18.15,2.38-.1,3.53-.28,1.3-1.1,2.49-2.26,3.28,3.2.98,6.75.98,9.95,0,.24.24-.19.56-.53.64-2.03.52-4.11,1.04-6.22.92-2.1-.12-4.28-.99-5.32-2.67.41.25.84.51,1.33.59.49.07,1.06-.09,1.27-.5.48-.92.83-1.89,1.05-2.88-1.31.11-2.59.47-3.74,1.05.63.53,1.26,1.06,1.89,1.59-1.05.35-1.94-.75-2.92-1.25-.91-.46-2.05-.4-3.02-.05-.97.35-1.8.95-2.62,1.53-.74.53-1.54,1.19-1.54,2.05,2.4-.95,5.14-1.91,7.54-.96-3.05.11-6.14.98-8.45,2.8-2.31,1.83-3.74,4.7-3.28,7.46.46,2.77,1.15,4.65,5.67,5.6,1.29.39,1.11.24.98.05-.1-.22-.28-.6-.43-.91-.97-2.32-.75-5.41.5-7.93,1.24-2.52,3.6-4.56,6.42-5.55-2.31,1.92-4.66,4-5.61,6.72-.48,1.37-.57,2.83-.49,4.26.05.99.2,2,.72,2.86.64,1.05,1.81,1.77,3.07,2.1,1.26.33,2.61.28,3.89.04.72-.13,1.49-.36,1.91-.92.54-.72.28-1.69.25-2.57"/></svg>